<svg xmlns="http://www.w3.org/2000/svg" viewBox="0 0 512 640" x="0px" y="0px"><g><g data-name="Outline"><path d="M260.243,465.285C311.415,413.936,413.5,310.971,465.284,260.243c57.99-56.8,57.4-156.128,0-213.527s-156.721-57.984-213.526,0C249.851,48.663,47.547,250.944,46.715,251.758c-57.99,56.8-57.987,156.725,0,213.527C106.19,523.543,201.474,524.256,260.243,465.285ZM152.192,164.892c2.818-2.818,107.15-108.771,108.051-109.69,52.292-53.379,143.72-52.837,196.556,0s53.581,144.475,0,196.556c-27.6,26.829-106.874,105.233-109.691,108.05h0C312.279,389.032,238.7,338.371,206.7,305.3c-52.827-52.828-77.789-117.127-54.508-140.408ZM55.2,260.243l76.612-76.613c-3.317,34.425,21.332,85.085,66.4,130.156,36.83,35.855,84.061,68.745,130.134,66.422L251.757,456.8c-54.19,54.191-142.366,54.191-196.556,0S1.01,314.434,55.2,260.243Z"/><path d="M238.176,176.689a247.5,247.5,0,0,1,23.008,15.376,6,6,0,0,0,7.2-9.6,259.578,259.578,0,0,0-24.131-16.123,6,6,0,0,0-6.076,10.348Z"/><path d="M335.322,273.84a6,6,0,1,0,10.347-6.076,259.338,259.338,0,0,0-16.121-24.13,6,6,0,1,0-9.6,7.2A247.726,247.726,0,0,1,335.322,273.84Z"/><path d="M354.955,324.275a6,6,0,1,0,11.865-1.795,128.345,128.345,0,0,0-8.141-28.555,6,6,0,1,0-11.127,4.494A116.345,116.345,0,0,1,354.955,324.275Z"/><path d="M292.6,219.4c3.283,3.283,6.518,6.668,9.616,10.061a6,6,0,0,0,8.862-8.092c-3.22-3.526-6.582-7.043-9.993-10.454s-6.917-6.762-10.438-9.978a6,6,0,1,0-8.092,8.861C285.943,212.892,289.322,216.123,292.6,219.4Z"/><path d="M187.743,157.048a116.52,116.52,0,0,1,25.857,7.408,6,6,0,0,0,4.494-11.127,128.383,128.383,0,0,0-28.553-8.145,6,6,0,1,0-1.8,11.864Z"/></g></g><text x="0" y="527" fill="#000000" font-size="5px" font-weight="bold" font-family="'Helvetica Neue', Helvetica, Arial-Unicode, Arial, Sans-serif">Created by Flowicon</text><text x="0" y="532" fill="#000000" font-size="5px" font-weight="bold" font-family="'Helvetica Neue', Helvetica, Arial-Unicode, Arial, Sans-serif">from the Noun Project</text></svg>