<svg width="30" height="30" viewBox="0 0 30 30" fill="none" xmlns="http://www.w3.org/2000/svg">
<g id="Component 5" clip-path="url(#clip0_1241_101217)">
<g id="Vector (Stroke)">
<path fill-rule="evenodd" clip-rule="evenodd" d="M0.64671 27.9763L3.42887 18.4531L4.8411 18.8657L2.33412 27.4469H27.7145L25.5901 18.8356L27.0186 18.4832L29.3678 28.0064C29.422 28.2259 29.3722 28.4581 29.2327 28.6362C29.0933 28.8142 28.8797 28.9182 28.6536 28.9182H1.35283C1.12122 28.9182 0.903143 28.8091 0.764222 28.6238C0.625302 28.4385 0.581763 28.1986 0.64671 27.9763Z" fill="#8013EE"/>
<path d="M3.42887 18.4531L4.8411 18.8657L2.33412 27.4469H27.7145L25.5901 18.8356L27.0186 18.4832L3.42887 18.4531Z" fill="#F7F7F7"/>
</g>
<g id="Vector (Stroke)_2">
<path fill-rule="evenodd" clip-rule="evenodd" d="M3.39844 1.81571C3.39844 1.40943 3.72779 1.08008 4.13407 1.08008H26.3031C26.7094 1.08008 27.0387 1.40943 27.0387 1.81571V18.6591C27.0387 19.0654 26.7094 19.3947 26.3031 19.3947H4.13407C3.72779 19.3947 3.39844 19.0654 3.39844 18.6591V1.81571ZM4.8697 2.55134V17.9235H25.5674V2.55134H4.8697Z" fill="#8013EE"/>
<path d="M4.8697 17.9235V2.55134H25.5674V17.9235H4.8697Z" fill="#F7F7F7"/>
</g>
<path id="Vector (Stroke)_3" fill-rule="evenodd" clip-rule="evenodd" d="M8.92637 9.71894L11.7387 6.90625L12.7791 7.94652L10.48 10.2459L12.786 12.6144L11.7318 13.6407L8.9195 10.7523C8.63876 10.4639 8.64182 10.0035 8.92637 9.71894Z" fill="#8013EE"/>
<path id="Vector (Stroke)_4" fill-rule="evenodd" clip-rule="evenodd" d="M20.0169 10.2459L17.7178 7.94652L18.7582 6.90625L21.5705 9.71894C21.8551 10.0035 21.8581 10.4639 21.5774 10.7523L18.7651 13.6407L17.7109 12.6144L20.0169 10.2459Z" fill="#8013EE"/>
<path id="Vector (Stroke)_5" fill-rule="evenodd" clip-rule="evenodd" d="M17.157 5.94562L14.7247 14.9152L13.3047 14.5301L15.7371 5.56055L17.157 5.94562Z" fill="#8013EE"/>
</g>
<defs>
<clipPath id="clip0_1241_101217">
<rect width="29.4253" height="29.4253" fill="white" transform="translate(0.289062 0.287109)"/>
</clipPath>
</defs>
</svg>
