<svg xmlns="http://www.w3.org/2000/svg" xmlns:xlink="http://www.w3.org/1999/xlink" version="1.1" x="0px" y="0px" viewBox="0 0 100 125" enable-background="new 0 0 100 100" xml:space="preserve"><g><path d="M88.365,78.185l-0.542-1.441L49.999,4.368L12.243,76.563l-0.61,1.621c-0.165,0.6-0.248,1.211-0.248,1.82   c0,8.762,16.962,15.627,38.614,15.627c21.653,0,38.615-6.865,38.615-15.627C88.614,79.396,88.53,78.782,88.365,78.185z    M49.999,94.005c-19.965,0-36.846-6.357-36.988-13.904l0.719-2.869l0.726-1.389l0.175,0.145c0.6-0.732,1.367-1.455,2.283-2.146   l-0.834-1.104l33.92-64.861L83.93,72.759l-0.828,1.094c0.913,0.691,1.681,1.414,2.279,2.148l0.172-0.141l0.717,1.371l0.718,2.869   C86.846,87.647,69.965,94.005,49.999,94.005z"/><path d="M44.966,64.507l0.085,1.625c1.083-0.057,2.194-0.096,3.306-0.113l-0.028-1.627C47.198,64.411,46.067,64.45,44.966,64.507z"/><path d="M31.616,66.226l0.344,1.588c1.046-0.225,2.136-0.434,3.238-0.619l-0.27-1.604C33.801,65.78,32.687,65.993,31.616,66.226z"/><path d="M38.263,65.099l0.203,1.613c1.09-0.137,2.195-0.256,3.286-0.352l-0.143-1.619C40.497,64.839,39.372,64.96,38.263,65.099z"/><path d="M18.84,70.683l0.78,1.426c0.896-0.49,1.883-0.963,2.932-1.408l-0.635-1.498C20.819,69.669,19.784,70.167,18.84,70.683z"/><path d="M25.094,68.001l0.521,1.541c0.996-0.336,2.055-0.656,3.145-0.951l-0.425-1.57C27.212,67.325,26.122,67.655,25.094,68.001z"/><path d="M71.259,68.595c1.081,0.293,2.14,0.615,3.146,0.953l0.52-1.539c-1.037-0.352-2.127-0.682-3.241-0.982L71.259,68.595z"/><path d="M64.819,67.198c1.093,0.184,2.183,0.393,3.239,0.621l0.343-1.59c-1.08-0.232-2.194-0.447-3.312-0.635L64.819,67.198z"/><path d="M77.465,70.708c1.047,0.443,2.033,0.918,2.93,1.412l0.783-1.426c-0.945-0.52-1.98-1.018-3.078-1.484L77.465,70.708z"/><path d="M58.267,66.362c1.1,0.098,2.205,0.217,3.286,0.352l0.205-1.611c-1.103-0.141-2.229-0.262-3.349-0.359L58.267,66.362z"/><path d="M51.664,66.019c1.089,0.018,2.2,0.055,3.306,0.113l0.084-1.625c-1.124-0.059-2.255-0.096-3.362-0.115L51.664,66.019z"/></g><text x="0" y="115" fill="#000000" font-size="5px" font-weight="bold" font-family="'Helvetica Neue', Helvetica, Arial-Unicode, Arial, Sans-serif">Created by Bakunetsu Kaito</text><text x="0" y="120" fill="#000000" font-size="5px" font-weight="bold" font-family="'Helvetica Neue', Helvetica, Arial-Unicode, Arial, Sans-serif">from the Noun Project</text></svg>