<svg xmlns="http://www.w3.org/2000/svg" xmlns:xlink="http://www.w3.org/1999/xlink" version="1.1" x="0px" y="0px" viewBox="0 0 95 118.75" enable-background="new 0 0 95 95" xml:space="preserve"><line fill="#000000" stroke="#010101" stroke-width="0.5" stroke-miterlimit="10" x1="47.5" y1="87.5" x2="47.5" y2="47.5"/><line fill="#000000" stroke="#010101" stroke-width="0.5" stroke-miterlimit="10" x1="82.135" y1="67.5" x2="82.135" y2="27.5"/><g><g><line fill="#000000" stroke="#010101" stroke-width="0.25" stroke-miterlimit="10" x1="47.5" y1="47.5" x2="47.5" y2="47"/><line fill="#000000" stroke="#010101" stroke-width="0.25" stroke-miterlimit="10" stroke-dasharray="1,1" x1="47.5" y1="46" x2="47.5" y2="8.5"/><line fill="#000000" stroke="#010101" stroke-width="0.25" stroke-miterlimit="10" x1="47.5" y1="8" x2="47.5" y2="7.5"/></g></g><line fill="#000000" stroke="#010101" stroke-width="0.5" stroke-miterlimit="10" x1="47.5" y1="87.5" x2="82.135" y2="67.5"/><line fill="#000000" stroke="#010101" stroke-width="0.25" stroke-miterlimit="10" stroke-dasharray="1" x1="82.135" y1="67.5" x2="47.5" y2="47.5"/><line fill="#000000" stroke="#010101" stroke-width="0.5" stroke-miterlimit="10" x1="47.5" y1="47.5" x2="82.135" y2="27.5"/><line fill="#000000" stroke="#010101" stroke-width="0.5" stroke-miterlimit="10" x1="82.135" y1="27.5" x2="47.5" y2="7.5"/><line fill="#000000" stroke="#010101" stroke-width="0.5" stroke-miterlimit="10" x1="12.865" y1="67.5" x2="12.865" y2="27.5"/><line fill="#000000" stroke="#010101" stroke-width="0.5" stroke-miterlimit="10" x1="47.5" y1="87.5" x2="12.865" y2="67.5"/><line fill="#000000" stroke="#010101" stroke-width="0.25" stroke-miterlimit="10" stroke-dasharray="1" x1="12.865" y1="67.5" x2="47.5" y2="47.5"/><line fill="#000000" stroke="#010101" stroke-width="0.5" stroke-miterlimit="10" x1="47.5" y1="47.5" x2="12.865" y2="27.5"/><line fill="#000000" stroke="#010101" stroke-width="0.5" stroke-miterlimit="10" x1="12.865" y1="27.5" x2="47.5" y2="7.5"/><text x="0" y="110" fill="#000000" font-size="5px" font-weight="bold" font-family="'Helvetica Neue', Helvetica, Arial-Unicode, Arial, Sans-serif">Created by Enzo Martin</text><text x="0" y="115" fill="#000000" font-size="5px" font-weight="bold" font-family="'Helvetica Neue', Helvetica, Arial-Unicode, Arial, Sans-serif">from the Noun Project</text></svg>