<svg xmlns="http://www.w3.org/2000/svg" xmlns:xlink="http://www.w3.org/1999/xlink" version="1.1" x="0px" y="0px" viewBox="7.5 7.5 50 62.5" enable-background="new 7.5 7.5 50 50" xml:space="preserve"><path d="M28.728,34.473c0.276,0,0.5-0.224,0.5-0.5v-3c0-0.276-0.224-0.5-0.5-0.5s-0.5,0.224-0.5,0.5v3  C28.228,34.249,28.451,34.473,28.728,34.473z"/><path d="M28.228,15.973c0,0.276,0.224,0.5,0.5,0.5s0.5-0.224,0.5-0.5v-3c0-0.276-0.224-0.5-0.5-0.5s-0.5,0.224-0.5,0.5V15.973z"/><path d="M28.728,28.473c0.276,0,0.5-0.224,0.5-0.5v-3c0-0.276-0.224-0.5-0.5-0.5s-0.5,0.224-0.5,0.5v3  C28.228,28.249,28.451,28.473,28.728,28.473z"/><path d="M28.728,40.473c0.276,0,0.5-0.224,0.5-0.5v-3c0-0.276-0.224-0.5-0.5-0.5s-0.5,0.224-0.5,0.5v3  C28.228,40.249,28.451,40.473,28.728,40.473z"/><path d="M38.41,46.473h3c0.276,0,0.5-0.224,0.5-0.5s-0.224-0.5-0.5-0.5h-3c-0.276,0-0.5,0.224-0.5,0.5S38.134,46.473,38.41,46.473z"/><path d="M47.898,8.191c-0.006-0.043-0.01-0.087-0.026-0.128c-0.016-0.04-0.043-0.073-0.068-0.107  c-0.013-0.017-0.019-0.037-0.034-0.053c-0.001-0.001-0.002-0.001-0.003-0.002c-0.037-0.038-0.083-0.066-0.131-0.09  c-0.011-0.005-0.02-0.016-0.03-0.02c-0.012-0.005-0.026-0.004-0.038-0.008c-0.05-0.017-0.101-0.03-0.152-0.031  c-0.002,0-0.003-0.001-0.005-0.001H28.728c-0.028,0-0.053,0.012-0.08,0.016c-0.036,0.006-0.072,0.008-0.106,0.021  c-0.043,0.017-0.079,0.045-0.116,0.073c-0.015,0.012-0.033,0.017-0.046,0.03l-0.006,0.006l0,0L17.242,18.668  c-0.001,0.001-0.001,0.002-0.002,0.003c-0.045,0.044-0.081,0.097-0.107,0.155c-0.001,0.002-0.003,0.003-0.003,0.005  c-0.006,0.014-0.005,0.03-0.009,0.044c-0.016,0.048-0.029,0.097-0.03,0.147c0,0.001-0.001,0.003-0.001,0.004V56.75  c0,0.276,0.224,0.5,0.5,0.5h18.682c0.064,0,0.129-0.014,0.189-0.038c0.036-0.015,0.065-0.04,0.097-0.063  c0.021-0.015,0.043-0.022,0.062-0.04l0.006-0.006l0,0l11.133-10.771c0.001-0.001,0.001-0.002,0.002-0.003  c0.045-0.044,0.081-0.097,0.107-0.155c0.001-0.002,0.002-0.004,0.003-0.006c0.005-0.011,0.004-0.023,0.008-0.034  c0.018-0.052,0.031-0.104,0.031-0.157c0-0.002,0.001-0.003,0.001-0.004V8.25C47.91,8.229,47.9,8.211,47.898,8.191z M46.91,45.473  h-2.5c-0.276,0-0.5,0.224-0.5,0.5s0.224,0.5,0.5,0.5h1.764l-9.402,9.098V19.24L46.91,9.43V45.473z M28.728,10.473  c0.276,0,0.5-0.224,0.5-0.5V8.75h16.947l-10.105,9.778h-7.124c-0.066-0.033-0.139-0.055-0.218-0.055s-0.152,0.022-0.218,0.055  h-9.684l9.402-9.098v0.543C28.228,10.249,28.451,10.473,28.728,10.473z M20.463,53.97c-0.191-0.198-0.508-0.203-0.707-0.012  L18.09,55.57V19.528h10.138v2.445c0,0.276,0.224,0.5,0.5,0.5s0.5-0.224,0.5-0.5v-2.445h6.544v26.103  c-0.091-0.097-0.218-0.158-0.361-0.158h-3c-0.276,0-0.5,0.224-0.5,0.5s0.224,0.5,0.5,0.5h3c0.144,0,0.271-0.062,0.361-0.158v9.936  H18.825l1.626-1.573C20.65,54.484,20.655,54.168,20.463,53.97z"/><path d="M22.26,52.731c0.125,0,0.25-0.047,0.348-0.141l2.156-2.087c0.199-0.192,0.204-0.509,0.012-0.707  c-0.191-0.198-0.508-0.202-0.707-0.012l-2.156,2.087c-0.199,0.192-0.204,0.509-0.012,0.707  C21.999,52.681,22.129,52.731,22.26,52.731z"/><path d="M26.572,48.559c0.125,0,0.25-0.047,0.348-0.141l2.01-1.945h0.48c0.276,0,0.5-0.224,0.5-0.5s-0.224-0.5-0.5-0.5h-0.183v-2.5  c0-0.276-0.224-0.5-0.5-0.5s-0.5,0.224-0.5,0.5v2.788l-2.003,1.938c-0.198,0.192-0.204,0.509-0.012,0.707  C26.311,48.508,26.441,48.559,26.572,48.559z"/><text x="7.5" y="72.5" fill="#000000" font-size="5px" font-weight="bold" font-family="'Helvetica Neue', Helvetica, Arial-Unicode, Arial, Sans-serif">Created by Abd Majd</text><text x="7.5" y="77.5" fill="#000000" font-size="5px" font-weight="bold" font-family="'Helvetica Neue', Helvetica, Arial-Unicode, Arial, Sans-serif">from the Noun Project</text></svg>