<svg width="152" height="152" viewBox="0 0 152 152" fill="none" xmlns="http://www.w3.org/2000/svg">
<path d="M66.5 80.75H42.75C40.1256 80.75 38 78.6244 38 76V71.25C38 68.6256 40.1256 66.5 42.75 66.5H66.5C69.1244 66.5 71.25 68.6256 71.25 71.25V76C71.25 78.6244 69.1244 80.75 66.5 80.75Z" fill="#D9D9D9"/>
<path d="M23.75 59.375C34.2434 59.375 42.75 51.9317 42.75 42.75C42.75 33.5683 34.2434 26.125 23.75 26.125C13.2566 26.125 4.75 33.5683 4.75 42.75C4.75 51.9317 13.2566 59.375 23.75 59.375Z" fill="#D9D9D9"/>
<path d="M149.625 28.5H144.875C144.875 16.7153 135.285 7.125 123.5 7.125C111.715 7.125 102.125 16.7153 102.125 28.5H97.375C97.375 14.0956 109.096 2.375 123.5 2.375C137.904 2.375 149.625 14.0956 149.625 28.5Z" fill="#8013EE"/>
<path d="M140.125 28.5H135.375C135.375 21.9521 130.048 16.625 123.5 16.625C116.952 16.625 111.625 21.9521 111.625 28.5H106.875C106.875 19.3325 114.333 11.875 123.5 11.875C132.667 11.875 140.125 19.3325 140.125 28.5Z" fill="#8013EE"/>
<path d="M59.375 99.75C55.4467 99.75 52.25 102.947 52.25 106.875C52.25 110.803 55.4467 114 59.375 114C63.3033 114 66.5 110.803 66.5 106.875C66.5 102.947 63.3033 99.75 59.375 99.75ZM59.375 109.25C58.0664 109.25 57 108.184 57 106.875C57 105.566 58.0664 104.5 59.375 104.5C60.6836 104.5 61.75 105.566 61.75 106.875C61.75 108.184 60.6836 109.25 59.375 109.25Z" fill="#202123"/>
<path d="M116.375 99.75C112.447 99.75 109.25 102.947 109.25 106.875C109.25 110.803 112.447 114 116.375 114C120.303 114 123.5 110.803 123.5 106.875C123.5 102.947 120.303 99.75 116.375 99.75ZM116.375 109.25C115.066 109.25 114 108.184 114 106.875C114 105.566 115.066 104.5 116.375 104.5C117.684 104.5 118.75 105.566 118.75 106.875C118.75 108.184 117.684 109.25 116.375 109.25Z" fill="#202123"/>
<path d="M35.625 71.25V76C35.625 79.9283 38.8217 83.125 42.75 83.125H66.5C70.4282 83.125 73.625 79.9283 73.625 76V71.25C73.625 67.3217 70.4282 64.125 66.5 64.125H42.75C38.8217 64.125 35.625 67.3217 35.625 71.25ZM68.875 71.25V76C68.875 77.3086 67.8086 78.375 66.5 78.375H42.75C41.4414 78.375 40.375 77.3086 40.375 76V71.25C40.375 69.9414 41.4414 68.875 42.75 68.875H66.5C67.8086 68.875 68.875 69.9414 68.875 71.25Z" fill="#202123"/>
<path d="M149.625 90.25C149.625 68.0271 143.11 46.5072 130.782 28.0155L130.54 27.6521C130.114 24.1276 127.138 21.375 123.5 21.375C119.572 21.375 116.375 24.5717 116.375 28.5C116.375 31.8179 118.664 34.5871 121.738 35.378L125.949 47.1699C129.82 58.0094 132.086 69.2621 132.762 80.7025C127.542 74.9146 120.013 71.25 111.625 71.25H78.375V76H111.625C124.721 76 135.375 86.6543 135.375 99.75C135.375 104.949 133.677 109.908 130.625 113.976V106.875C130.625 99.0161 124.234 92.625 116.375 92.625C108.516 92.625 102.125 99.0161 102.125 106.875V123.5H73.625V106.875C73.625 99.0161 67.2339 92.625 59.375 92.625C51.5161 92.625 45.125 99.0161 45.125 106.875V113.976C42.0731 109.908 40.375 104.951 40.375 99.75C40.375 95.9476 41.2466 92.3163 42.9637 88.9556L38.7339 86.7944C37.2186 89.756 36.2639 92.8957 35.8577 96.159L19 113.017L17.898 111.915C16.1785 110.195 13.8961 109.25 11.4689 109.25C6.45288 109.25 2.375 113.328 2.375 118.344C2.375 120.771 3.32025 123.056 5.03975 124.773L14.8034 134.537C16.8744 136.61 19.6318 137.75 22.5625 137.75C25.4932 137.75 28.2506 136.61 30.324 134.534L42.0541 122.804L38.6959 119.446L26.9657 131.176C24.6145 133.527 20.5129 133.527 18.1616 131.176L8.398 121.412C7.57625 120.593 7.125 119.503 7.125 118.344C7.125 115.947 9.0725 114 11.4689 114C12.6279 114 13.718 114.451 14.5398 115.273L19 119.733L35.8008 102.933C36.5726 109.865 39.8857 116.24 45.125 120.937V130.625C39.8857 130.625 35.625 134.886 35.625 140.125C35.625 145.364 39.8857 149.625 45.125 149.625H66.5C70.4283 149.625 73.625 146.428 73.625 142.5V128.25H102.125V130.625C96.8857 130.625 92.625 134.886 92.625 140.125C92.625 145.364 96.8857 149.625 102.125 149.625H123.5C127.428 149.625 130.625 146.428 130.625 142.5V120.94C136.123 116.009 139.458 109.226 140.006 101.897C145.476 100.838 149.625 96.026 149.625 90.25ZM68.875 142.5C68.875 143.809 67.8086 144.875 66.5 144.875H45.125C42.5054 144.875 40.375 142.745 40.375 140.125C40.375 137.505 42.5054 135.375 45.125 135.375H49.875V106.875C49.875 101.636 54.1357 97.375 59.375 97.375C64.6143 97.375 68.875 101.636 68.875 106.875V142.5ZM125.875 142.5C125.875 143.809 124.809 144.875 123.5 144.875H102.125C99.5054 144.875 97.375 142.745 97.375 140.125C97.375 137.505 99.5054 135.375 102.125 135.375H106.875V106.875C106.875 101.636 111.136 97.375 116.375 97.375C121.614 97.375 125.875 101.636 125.875 106.875V142.5ZM123.5 26.125C124.809 26.125 125.875 27.1914 125.875 28.5C125.875 29.8086 124.809 30.875 123.5 30.875C122.191 30.875 121.125 29.8086 121.125 28.5C121.125 27.1914 122.191 26.125 123.5 26.125ZM139.985 96.9808C139.671 93.7555 138.8 90.6965 137.501 87.875H137.75C137.75 73.4184 135.285 59.185 130.423 45.5715L126.606 34.8816C127.359 34.5135 128.041 34.0338 128.618 33.4376C139.258 50.5068 144.875 70.0744 144.875 90.25C144.875 93.3945 142.816 96.0379 139.985 96.9808Z" fill="#202123"/>
<path d="M20.0498 61.4458C22.6124 65.2007 25.9397 68.4663 29.7801 70.8912L32.3142 66.8751C30.0366 65.4382 27.9894 63.6379 26.1962 61.6192C36.8339 60.5314 45.125 52.4897 45.125 42.7498C45.125 33.0052 36.8267 24.9611 26.1844 23.8828C31.5542 17.8028 39.2303 14.2498 47.5 14.2498C49.1079 14.2498 50.6991 14.4303 52.2714 14.6963C52.2643 16.2804 52.4519 17.9548 52.8913 19.7194C54.226 25.0537 57.5201 30.5518 62.1727 35.2044C66.329 39.3607 71.1598 42.4221 75.9478 43.9824C75.677 50.1907 73.4041 56.1804 69.426 60.9637L73.0788 64.0013C77.5461 58.6291 80.18 51.9553 80.6526 45.0037C81.3176 45.0749 81.9779 45.1343 82.612 45.1343C86.241 45.1343 89.3404 43.9753 91.5943 41.7214C94.8171 38.4986 95.8004 33.5491 94.3587 27.7826C93.024 22.4483 89.7299 16.9502 85.0772 12.2976C80.4246 7.64493 74.9265 4.35081 69.5922 3.01606C63.8257 1.57443 58.8763 2.55531 55.6534 5.78056C54.4635 6.97043 53.5848 8.39781 53.0148 10.0128C52.4661 9.92018 51.9246 9.78956 51.3712 9.72543C50.7965 8.21256 49.951 6.89206 48.8419 5.78293C42.4223 -0.643818 29.4975 2.22043 19.4228 12.2976C14.6158 17.1046 11.2931 22.7737 10.0486 28.1863C5.36275 31.6752 2.375 36.9073 2.375 42.7498C2.375 52.1026 10.0249 59.8807 20.0498 61.4458ZM59.014 9.13881C60.3915 7.76131 62.3604 7.11056 64.6594 7.11056C69.6849 7.11056 76.285 10.2218 81.719 15.6558C89.6373 23.5741 92.6226 33.9718 88.236 38.3608C83.8423 42.7451 73.4492 39.7621 65.531 31.8438C57.6104 23.9256 54.6274 13.5278 59.014 9.13881ZM19 35.6248C17.6914 35.6248 16.625 34.5584 16.625 33.2498C16.625 31.9412 17.6914 30.8748 19 30.8748C20.3086 30.8748 21.375 31.9412 21.375 33.2498C21.375 34.5584 20.3086 35.6248 19 35.6248ZM22.781 15.6558C26.8328 11.6041 31.5471 8.75168 36.0596 7.62356C40.1375 6.60231 43.4886 7.14143 45.486 9.13881C45.6214 9.27418 45.7069 9.45706 45.8304 9.60431C35.4208 10.1221 25.954 15.4064 20.0569 24.0538C18.7102 24.2628 17.4087 24.5858 16.1619 25.0109C17.6439 21.7738 19.9191 18.5177 22.781 15.6558ZM11.9249 32.7487C11.913 32.9173 11.875 33.0788 11.875 33.2498C11.875 36.3421 13.8676 38.9546 16.625 39.9378V44.1416L12.5709 48.1957L15.9291 51.5539L19 48.4831L22.0709 51.5539L25.4291 48.1957L21.375 44.1416V39.9378C24.1324 38.9546 26.125 36.3421 26.125 33.2498C26.125 31.4306 25.4196 29.7847 24.2915 28.5236C33.2072 28.7706 40.375 35.0477 40.375 42.7498C40.375 50.6087 32.9175 56.9998 23.75 56.9998C14.5825 56.9998 7.125 50.6087 7.125 42.7498C7.125 38.8548 8.96087 35.3232 11.9249 32.7487Z" fill="#202123"/>
<path d="M45.125 19C41.8522 19 39.1875 21.6647 39.1875 24.9375C39.1875 28.2102 41.8522 30.875 45.125 30.875C48.3977 30.875 51.0625 28.2102 51.0625 24.9375C51.0625 21.6647 48.3977 19 45.125 19ZM45.125 26.125C44.4695 26.125 43.9375 25.593 43.9375 24.9375C43.9375 24.282 44.4695 23.75 45.125 23.75C45.7805 23.75 46.3125 24.282 46.3125 24.9375C46.3125 25.593 45.7805 26.125 45.125 26.125Z" fill="#202123"/>
</svg>
