<svg xmlns="http://www.w3.org/2000/svg" viewBox="0 0 16 20" x="0px" y="0px"><title>conical frustum</title><g><path d="M8,16c-.717,0-7-.056-7-2s6.283-2,7-2,7,.056,7,2S8.717,16,8,16ZM2.027,14c.358.383,2.508,1,5.973,1s5.614-.617,5.973-1c-.358-.383-2.508-1-5.973-1S2.386,13.617,2.027,14Zm11.982.05h0Z"/><path d="M8,5C6.555,5,5,4.531,5,3.5S6.555,2,8,2s3,.469,3,1.5S9.445,5,8,5ZM8,3a2.827,2.827,0,0,0-2,.527A3.33,3.33,0,0,0,8,4a3.052,3.052,0,0,0,1.987-.5A3.052,3.052,0,0,0,8,3Zm2,.527h0Z"/><path d="M1.5,14.5a.493.493,0,0,1-.178-.033.5.5,0,0,1-.289-.646l4-10.5a.5.5,0,1,1,.934.356l-4,10.5A.5.5,0,0,1,1.5,14.5Z"/><path d="M14.5,14.5a.5.5,0,0,1-.467-.322l-4-10.5a.5.5,0,1,1,.934-.356l4,10.5a.5.5,0,0,1-.289.646A.493.493,0,0,1,14.5,14.5Z"/></g><text x="0" y="31" fill="#000000" font-size="5px" font-weight="bold" font-family="'Helvetica Neue', Helvetica, Arial-Unicode, Arial, Sans-serif">Created by icon 54</text><text x="0" y="36" fill="#000000" font-size="5px" font-weight="bold" font-family="'Helvetica Neue', Helvetica, Arial-Unicode, Arial, Sans-serif">from the Noun Project</text></svg>