<svg width="30" height="30" viewBox="0 0 30 30" fill="none" xmlns="http://www.w3.org/2000/svg">
<g id="Component 12" clip-path="url(#clip0_1241_101224)">
<g id="Vector (Stroke)">
<path fill-rule="evenodd" clip-rule="evenodd" d="M9.22656 4.05649C9.22656 2.19299 10.7413 0.677734 12.6053 0.677734C13.5479 0.677734 14.4001 1.0655 15.0124 1.68817C15.6247 1.06555 16.4767 0.677734 17.4197 0.677734C19.2829 0.677734 20.7981 2.19299 20.7981 4.05649C20.7981 4.06904 20.7977 4.08153 20.7971 4.09396C20.7928 4.4814 20.7227 4.85442 20.5972 5.20177C20.4304 5.66402 20.1662 6.0772 19.8316 6.41869C19.8239 6.42714 19.8159 6.43542 19.8078 6.44353L15.6272 10.5973L15.625 10.5994C15.4579 10.7641 15.2378 10.8482 15.0182 10.8482C14.804 10.8482 14.5803 10.7679 14.4085 10.5958L10.3985 6.61257C10.2722 6.5035 10.1539 6.38504 10.0446 6.25762C9.7743 5.94362 9.55998 5.57874 9.41867 5.17849C9.29439 4.82674 9.22656 4.44911 9.22656 4.05649ZM19.3266 4.0279C19.3112 2.98993 18.4607 2.149 17.4197 2.149C16.6505 2.149 15.9833 2.60814 15.6821 3.27123C15.5628 3.53399 15.3008 3.7027 15.0122 3.70265C14.7236 3.70261 14.4617 3.53381 14.3424 3.271C14.0417 2.60821 13.3742 2.149 12.6053 2.149C11.554 2.149 10.6978 3.00542 10.6978 4.05649C10.6978 4.27875 10.736 4.49056 10.8059 4.68824C10.8851 4.91288 11.0061 5.11954 11.16 5.2982L11.1611 5.2995C11.2259 5.37508 11.2967 5.44537 11.3731 5.51011C11.3879 5.52267 11.4022 5.5358 11.416 5.54948L15.0185 9.12802L18.7515 5.41902C18.757 5.41309 18.7627 5.40725 18.7684 5.40149C18.965 5.20433 19.1181 4.96627 19.2134 4.70219C19.286 4.50113 19.3261 4.2836 19.3261 4.05576C19.3261 4.04644 19.3262 4.03715 19.3266 4.0279Z" fill="#8013EE"/>
<path d="M17.4197 2.149C18.4607 2.149 19.3112 2.98993 19.3266 4.0279C19.3262 4.03715 19.3261 4.04644 19.3261 4.05576C19.3261 4.2836 19.286 4.50113 19.2134 4.70219C19.1181 4.96627 18.965 5.20433 18.7684 5.40149C18.7627 5.40725 18.757 5.41309 18.7515 5.41902L15.0185 9.12802L11.416 5.54948C11.4022 5.5358 11.3879 5.52267 11.3731 5.51011C11.2967 5.44537 11.2259 5.37508 11.1611 5.2995L11.16 5.2982C11.0061 5.11954 10.8851 4.91288 10.8059 4.68824C10.736 4.49056 10.6978 4.27875 10.6978 4.05649C10.6978 3.00542 11.554 2.149 12.6053 2.149C13.3742 2.149 14.0417 2.60821 14.3424 3.271C14.4617 3.53381 14.7236 3.70261 15.0122 3.70265C15.3008 3.7027 15.5628 3.53399 15.6821 3.27123C15.9833 2.60814 16.6505 2.149 17.4197 2.149Z" fill="#F7F7F7"/>
</g>
<g id="Vector (Stroke)_2">
<path fill-rule="evenodd" clip-rule="evenodd" d="M3.85909 15.5728C2.91659 15.5728 2.15095 16.3385 2.15095 17.281V19.6957C2.15095 19.9206 2.33396 20.1036 2.55886 20.1036H9.06038C9.28527 20.1036 9.46828 19.9206 9.46828 19.6957V17.281C9.46828 16.3385 8.70265 15.5728 7.76015 15.5728H3.85909ZM0.679688 17.281C0.679688 15.5259 2.10403 14.1016 3.85909 14.1016H7.76015C9.51521 14.1016 10.9395 15.5259 10.9395 17.281V19.6957C10.9395 20.7331 10.0978 21.5748 9.06038 21.5748H2.55886C1.52141 21.5748 0.679688 20.7331 0.679688 19.6957V17.281Z" fill="#8013EE"/>
<path d="M2.15095 17.281C2.15095 16.3385 2.91659 15.5728 3.85909 15.5728H7.76015C8.70265 15.5728 9.46828 16.3385 9.46828 17.281V19.6957C9.46828 19.9206 9.28527 20.1036 9.06038 20.1036H2.55886C2.33396 20.1036 2.15095 19.9206 2.15095 19.6957V17.281Z" fill="#F7F7F7"/>
</g>
<g id="Vector (Stroke)_3">
<path fill-rule="evenodd" clip-rule="evenodd" d="M5.80872 9.82673C5.09164 9.82673 4.51033 10.408 4.51033 11.1251C4.51033 11.8422 5.09164 12.4235 5.80872 12.4235C6.5258 12.4235 7.10711 11.8422 7.10711 11.1251C7.10711 10.408 6.5258 9.82673 5.80872 9.82673ZM3.03906 11.1251C3.03906 9.59548 4.27908 8.35547 5.80872 8.35547C7.33836 8.35547 8.57837 9.59548 8.57837 11.1251C8.57837 12.6548 7.33836 13.8948 5.80872 13.8948C4.27908 13.8948 3.03906 12.6548 3.03906 11.1251Z" fill="#8013EE"/>
<path d="M4.51033 11.1251C4.51033 10.408 5.09164 9.82673 5.80872 9.82673C6.5258 9.82673 7.10711 10.408 7.10711 11.1251C7.10711 11.8422 6.5258 12.4235 5.80872 12.4235C5.09164 12.4235 4.51033 11.8422 4.51033 11.1251Z" fill="#F7F7F7"/>
</g>
<g id="Vector (Stroke)_4">
<path fill-rule="evenodd" clip-rule="evenodd" d="M22.2454 15.5728C21.3031 15.573 20.5377 16.3386 20.5377 17.281V19.6957C20.5377 19.9206 20.7207 20.1036 20.9456 20.1036H27.4467C27.6716 20.1036 27.8546 19.9206 27.8546 19.6957V17.281C27.8546 16.3385 27.089 15.5728 26.1465 15.5728H22.2454ZM22.245 14.1016C20.4903 14.102 19.0664 15.5262 19.0664 17.281V19.6957C19.0664 20.7331 19.9081 21.5748 20.9456 21.5748H27.4467C28.4842 21.5748 29.3259 20.7331 29.3259 19.6957V17.281C29.3259 15.5259 27.9016 14.1016 26.1465 14.1016L22.245 14.1016Z" fill="#8013EE"/>
<path d="M20.5377 17.281C20.5377 16.3386 21.3031 15.573 22.2454 15.5728H26.1465C27.089 15.5728 27.8546 16.3385 27.8546 17.281V19.6957C27.8546 19.9206 27.6716 20.1036 27.4467 20.1036H20.9456C20.7207 20.1036 20.5377 19.9206 20.5377 19.6957V17.281Z" fill="#F7F7F7"/>
</g>
<g id="Vector (Stroke)_5">
<path fill-rule="evenodd" clip-rule="evenodd" d="M24.1954 9.82673C23.4784 9.82673 22.897 10.408 22.897 11.1251C22.897 11.8422 23.4784 12.4235 24.1954 12.4235C24.9125 12.4235 25.4938 11.8422 25.4938 11.1251C25.4938 10.408 24.9125 9.82673 24.1954 9.82673ZM21.4258 11.1251C21.4258 9.59549 22.6658 8.35547 24.1954 8.35547C25.7251 8.35547 26.9651 9.59549 26.9651 11.1251C26.9651 12.6548 25.7251 13.8948 24.1954 13.8948C22.6658 13.8948 21.4258 12.6548 21.4258 11.1251Z" fill="#8013EE"/>
<path d="M22.897 11.1251C22.897 10.408 23.4784 9.82673 24.1954 9.82673C24.9125 9.82673 25.4938 10.408 25.4938 11.1251C25.4938 11.8422 24.9125 12.4235 24.1954 12.4235C23.4784 12.4235 22.897 11.8422 22.897 11.1251Z" fill="#F7F7F7"/>
</g>
<g id="Vector (Stroke)_6">
<path fill-rule="evenodd" clip-rule="evenodd" d="M13.0618 23.3189C12.1195 23.3191 11.3541 24.0847 11.3541 25.0271V27.4418C11.3541 27.6667 11.5371 27.8497 11.762 27.8497H18.2631C18.488 27.8497 18.671 27.6667 18.671 27.4418V25.0271C18.671 24.0846 17.9054 23.3189 16.9629 23.3189H13.0618C13.062 23.3189 13.0617 23.3189 13.0618 23.3189ZM13.0614 21.8477C11.3067 21.8481 9.88281 23.2723 9.88281 25.0271V27.4418C9.88281 28.4792 10.7245 29.3209 11.762 29.3209H18.2631C19.3006 29.3209 20.1423 28.4792 20.1423 27.4418V25.0271C20.1423 23.272 18.718 21.8477 16.9629 21.8477L13.0614 21.8477C13.0615 21.8477 13.0613 21.8477 13.0614 21.8477Z" fill="#8013EE"/>
<path d="M11.3541 25.0271C11.3541 24.0847 12.1195 23.3191 13.0618 23.3189H16.9629C17.9054 23.3189 18.671 24.0846 18.671 25.0271V27.4418C18.671 27.6667 18.488 27.8497 18.2631 27.8497H11.762C11.5371 27.8497 11.3541 27.6667 11.3541 27.4418V25.0271Z" fill="#F7F7F7"/>
</g>
<g id="Vector (Stroke)_7">
<path fill-rule="evenodd" clip-rule="evenodd" d="M15.0157 17.5748C14.2987 17.5748 13.7174 18.1561 13.7174 18.8732C13.7174 19.5903 14.2987 20.1716 15.0157 20.1716C15.7328 20.1716 16.3141 19.5903 16.3141 18.8732C16.3141 18.1561 15.7328 17.5748 15.0157 17.5748ZM12.2461 18.8732C12.2461 17.3435 13.4861 16.1035 15.0157 16.1035C16.5454 16.1035 17.7854 17.3435 17.7854 18.8732C17.7854 20.4028 16.5454 21.6428 15.0157 21.6428C13.4861 21.6428 12.2461 20.4028 12.2461 18.8732Z" fill="#8013EE"/>
<path d="M13.7174 18.8732C13.7174 18.1561 14.2987 17.5748 15.0157 17.5748C15.7328 17.5748 16.3141 18.1561 16.3141 18.8732C16.3141 19.5903 15.7328 20.1716 15.0157 20.1716C14.2987 20.1716 13.7174 19.5903 13.7174 18.8732Z" fill="#F7F7F7"/>
</g>
</g>
<defs>
<clipPath id="clip0_1241_101224">
<rect width="29.4253" height="29.4253" fill="white" transform="translate(0.289062 0.287109)"/>
</clipPath>
</defs>
</svg>
