<svg width="152" height="152" viewBox="0 0 152 152" fill="none" xmlns="http://www.w3.org/2000/svg">
<path d="M66.5 4.75C38.9548 4.75 16.625 27.0798 16.625 54.625H28.5V47.5H32.7275C46.8564 47.5 60.5221 42.446 71.25 33.25V4.75H66.5Z" fill="#D9D9D9"/>
<path d="M97.375 57C90.8271 57 85.5 62.3271 85.5 68.875C85.5 75.4229 90.8271 80.75 97.375 80.75C103.923 80.75 109.25 75.4229 109.25 68.875C109.25 62.3271 103.923 57 97.375 57ZM104.5 68.875C104.5 69.9722 104.232 70.9983 103.785 71.9269L100.733 68.875L103.785 65.8231C104.232 66.7517 104.5 67.7778 104.5 68.875ZM100.427 62.4649L97.375 65.5168L94.3231 62.4649C95.2517 62.0184 96.2778 61.75 97.375 61.75C98.4722 61.75 99.4983 62.0184 100.427 62.4649ZM90.9649 71.9269C90.5184 70.9983 90.25 69.9722 90.25 68.875C90.25 67.7778 90.5184 66.7517 90.9649 65.8231L94.0167 68.875L90.9649 71.9269ZM94.3231 75.2851L97.375 72.2332L100.427 75.2851C99.4983 75.7316 98.4722 76 97.375 76C96.2778 76 95.2517 75.7316 94.3231 75.2851Z" fill="#8013EE"/>
<path d="M2.375 76C2.375 85.1651 9.8325 92.625 19 92.625H21.375V59.375H19C9.8325 59.375 2.375 66.8325 2.375 76ZM16.625 87.6351C11.2124 86.5331 7.125 81.7356 7.125 76C7.125 70.2644 11.2124 65.4669 16.625 64.3649V87.6351Z" fill="#202123"/>
<path d="M49.875 64.125C45.9467 64.125 42.75 67.3217 42.75 71.25C42.75 75.1783 45.9467 78.375 49.875 78.375C53.8033 78.375 57 75.1783 57 71.25C57 67.3217 53.8033 64.125 49.875 64.125ZM49.875 73.625C48.5664 73.625 47.5 72.5586 47.5 71.25C47.5 69.9414 48.5664 68.875 49.875 68.875C51.1836 68.875 52.25 69.9414 52.25 71.25C52.25 72.5586 51.1836 73.625 49.875 73.625Z" fill="#202123"/>
<path d="M133 59.375H130.625V92.625H133C142.167 92.625 149.625 85.1651 149.625 76C149.625 66.8325 142.167 59.375 133 59.375ZM135.375 87.6351V64.3625C140.788 65.4645 144.875 70.2644 144.875 75.9976C144.875 81.7356 140.788 86.5331 135.375 87.6351Z" fill="#202123"/>
<path d="M78.375 49.875H121.125V90.25C121.125 104.654 109.404 116.375 95 116.375H78.375V121.125H95C112.024 121.125 125.875 107.274 125.875 90.25V45.125H78.375V49.875Z" fill="#202123"/>
<path d="M95 2.375H78.375V7.125H83.125V16.625H78.375V21.375H87.875V7.125H92.625V26.125H78.375V30.875H97.375V7.24613C110.67 8.45025 121.125 19.646 121.125 33.25V40.375H125.875V33.25C125.875 16.226 112.024 2.375 95 2.375Z" fill="#202123"/>
<path d="M130.625 26.125H135.375V16.188C138.132 15.2048 140.125 12.5922 140.125 9.5C140.125 5.57175 136.928 2.375 133 2.375C129.072 2.375 125.875 5.57175 125.875 9.5C125.875 12.5922 127.868 15.2048 130.625 16.188V26.125ZM133 7.125C134.309 7.125 135.375 8.19137 135.375 9.5C135.375 10.8086 134.309 11.875 133 11.875C131.691 11.875 130.625 10.8086 130.625 9.5C130.625 8.19137 131.691 7.125 133 7.125Z" fill="#202123"/>
<path d="M106.875 97.375C106.875 92.1357 102.614 87.875 97.375 87.875H78.375V92.625H83.125V102.125H78.375V106.875H97.375C102.614 106.875 106.875 102.614 106.875 97.375ZM102.125 97.375C102.125 99.9946 99.9946 102.125 97.375 102.125V92.625C99.9946 92.625 102.125 94.7554 102.125 97.375ZM87.875 92.625H92.625V102.125H87.875V92.625Z" fill="#202123"/>
<path d="M85.5 35.625H80.75V40.375H85.5V35.625Z" fill="#202123"/>
<path d="M97.375 35.625H92.625V40.375H97.375V35.625Z" fill="#202123"/>
<path d="M109.25 35.625H104.5V40.375H109.25V35.625Z" fill="#202123"/>
<path d="M97.375 125.875H92.625V135.375H78.375V140.125H109.25V144.875H78.375V149.625H114V135.375H97.375V125.875Z" fill="#202123"/>
<path d="M135.375 30.875H130.625V54.625H135.375V30.875Z" fill="#202123"/>
<path fill-rule="evenodd" clip-rule="evenodd" d="M19 54.625H14.25C14.25 25.8139 37.6889 2.375 66.5 2.375H73.625V121.125H57V144.875H68.875V125.875H73.625V149.625H52.25V120.721C37.4775 118.425 26.125 105.654 26.125 90.25V45.125H32.7275C45.9182 45.125 58.7124 40.5223 68.875 32.1433V7.125H66.5C40.3085 7.125 19 28.4335 19 54.625ZM30.875 90.25C30.875 104.654 42.5956 116.375 57 116.375H68.875V99.5013C64.79 100.563 61.75 104.249 61.75 108.664H57C57 101.617 62.1466 95.7654 68.875 94.6278V38.1473C58.4013 45.7401 45.7425 49.875 32.7275 49.875H30.875V90.25Z" fill="#202123"/>
</svg>
